<svg xmlns="http://www.w3.org/2000/svg" width="512" height="512" viewBox="0 0 512 512">
  <rect width="512" height="512" rx="128" fill="#4a2c1d"/>
  <path d="M368 192h-16c-6.8-21.7-22.1-39.7-42.3-49.8-19.1-9.6-41.2-12.7-62.7-10.2-24.8 2.8-46.3 16.5-60.6 36.6-8.2 11.5-13.4 25.1-15.1 39.3H144c-26.5 0-48 21.5-48 48v16c0 26.5 21.5 48 48 48h224c26.5 0 48-21.5 48-48v-16c0-26.5-21.5-48-48-48zm-224 48v-16c0-8.8 7.2-16 16-16h16v32h-16c-8.8 0-16-7.2-16-16zm256 0c0 8.8-7.2 16-16 16h-16v-32h16c8.8 0 16 7.2 16 16zm-96-88c14.6 0 28.3 4.8 39.4 12.9 8.3 6 15 13.9 19.5 23.1H205.1c4.5-9.2 11.2-17.1 19.5-23.1 11.1-8.1 24.8-12.9 39.4-12.9z" fill="#f5e6d3"/>
  <path d="M176 336h160v16c0 44.2-35.8 80-80 80s-80-35.8-80-80v-16z" fill="#8b6f47"/>
</svg>
